<svg width="24" height="24" viewBox="0 0 24 24" fill="none" xmlns="http://www.w3.org/2000/svg">
<path d="M7.803 5.731C8.392 5.731 8.922 5.782 9.408 5.886C9.891 5.989 10.303 6.159 10.651 6.394C10.994 6.629 11.262 6.941 11.455 7.333C11.642 7.72 11.735 8.204 11.735 8.776C11.735 9.396 11.595 9.914 11.314 10.327C11.031 10.741 10.614 11.08 10.058 11.342C10.815 11.561 11.376 11.944 11.748 12.488C12.122 13.037 12.305 13.694 12.305 14.464C12.305 15.089 12.186 15.626 11.947 16.077C11.7167 16.5213 11.3826 16.9034 10.973 17.191C10.5488 17.4864 10.0749 17.7032 9.574 17.831C9.04881 17.9689 8.50798 18.0381 7.965 18.037H2V5.731H7.803ZM7.452 10.703C7.932 10.703 8.33 10.589 8.644 10.358C8.956 10.13 9.107 9.754 9.107 9.239C9.107 8.953 9.056 8.717 8.956 8.532C8.85857 8.35402 8.71438 8.20603 8.539 8.104C8.35543 7.99513 8.15283 7.92217 7.942 7.889C7.71219 7.84614 7.47876 7.82571 7.245 7.828H4.71V10.703H7.452V10.703ZM7.603 15.942C7.87 15.942 8.124 15.919 8.363 15.865C8.604 15.813 8.818 15.729 9 15.604C9.182 15.484 9.332 15.321 9.44 15.113C9.549 14.907 9.602 14.638 9.602 14.315C9.602 13.681 9.423 13.23 9.069 12.957C8.714 12.687 8.238 12.553 7.655 12.553H4.71V15.943H7.603V15.942ZM16.168 15.901C16.535 16.259 17.064 16.439 17.752 16.439C18.245 16.439 18.671 16.314 19.03 16.066C19.384 15.817 19.6 15.551 19.683 15.276H21.838C21.492 16.348 20.967 17.114 20.249 17.575C19.54 18.038 18.677 18.268 17.669 18.268C16.967 18.268 16.335 18.155 15.769 17.931C15.2257 17.7194 14.7348 17.3926 14.33 16.973C13.9319 16.5436 13.6241 16.0386 13.425 15.488C13.2061 14.8791 13.0977 14.236 13.105 13.589C13.105 12.923 13.216 12.3 13.434 11.725C13.6409 11.1692 13.9587 10.6612 14.368 10.232C14.773 9.812 15.253 9.481 15.812 9.238C16.3998 8.99078 17.0324 8.86754 17.67 8.876C18.424 8.876 19.083 9.022 19.649 9.316C20.1979 9.59665 20.6738 10.0014 21.039 10.498C21.402 10.991 21.661 11.556 21.822 12.189C21.983 12.821 22.039 13.481 21.993 14.172H15.562C15.563 14.876 15.8 15.543 16.168 15.901V15.901ZM18.98 11.22C18.689 10.898 18.197 10.724 17.595 10.724C17.204 10.724 16.881 10.789 16.621 10.923C16.3833 11.0431 16.1724 11.2101 16.001 11.414C15.8505 11.5991 15.7389 11.8127 15.673 12.042C15.6153 12.2332 15.5781 12.43 15.562 12.629H19.544C19.486 12.005 19.272 11.544 18.98 11.22V11.22ZM15.062 6.557H20.051V7.772H15.062V6.557Z" fill="#4285F4"/>
</svg>
