<svg width="23" height="12" viewBox="0 0 23 12" fill="none" xmlns="http://www.w3.org/2000/svg">
<mask id="path-1-inside-1" fill="white">
<path fill-rule="evenodd" clip-rule="evenodd" d="M9.64346 0.875002C9.16037 0.038267 8.09044 -0.248419 7.2537 0.23467L0.875004 3.91742C0.234556 4.28718 -0.0836421 5.00075 0.0189408 5.6904C-0.0836476 6.38005 0.234551 7.09363 0.875004 7.46339L7.2537 11.1461C8.09044 11.6292 9.16037 11.3425 9.64346 10.5058C10.1265 9.66907 9.83986 8.59913 9.00312 8.11605L4.80179 5.6904L9.00313 3.26476C9.83986 2.78167 10.1265 1.71174 9.64346 0.875002ZM13.0765 0.989232C12.5934 1.82597 12.8801 2.8959 13.7168 3.37899L17.9181 5.80462L13.7168 8.23025C12.8801 8.71334 12.5934 9.78327 13.0765 10.62C13.5595 11.4567 14.6295 11.7434 15.4662 11.2603L21.8449 7.57759C22.4854 7.20783 22.8036 6.49428 22.701 5.80463C22.8036 5.11498 22.4854 4.40141 21.8449 4.03164L15.4662 0.348899C14.6295 -0.13419 13.5595 0.152497 13.0765 0.989232Z"/>
</mask>
<path d="M7.2537 0.23467L6.7537 -0.631355L7.2537 0.23467ZM9.64346 0.875002L10.5095 0.375002L9.64346 0.875002ZM0.875004 3.91742L1.375 4.78344L1.375 4.78344L0.875004 3.91742ZM0.0189408 5.6904L1.00806 5.83753L1.02994 5.6904L1.00806 5.54327L0.0189408 5.6904ZM0.875004 7.46339L1.375 6.59737L1.375 6.59737L0.875004 7.46339ZM7.2537 11.1461L7.7537 10.2801L7.7537 10.2801L7.2537 11.1461ZM9.64346 10.5058L8.77743 10.0058L8.77743 10.0058L9.64346 10.5058ZM9.00312 8.11605L8.50312 8.98207L8.50312 8.98207L9.00312 8.11605ZM4.80179 5.6904L4.30179 4.82438L2.80179 5.6904L4.30179 6.55643L4.80179 5.6904ZM9.00313 3.26476L8.50313 2.39873L8.50313 2.39873L9.00313 3.26476ZM13.7168 3.37899L14.2168 2.51296L14.2168 2.51296L13.7168 3.37899ZM13.0765 0.989232L12.2104 0.489232L12.2104 0.489232L13.0765 0.989232ZM17.9181 5.80462L18.4181 6.67064L19.9181 5.80462L18.4181 4.93859L17.9181 5.80462ZM13.7168 8.23025L13.2168 7.36422L13.2168 7.36422L13.7168 8.23025ZM13.0765 10.62L12.2104 11.12L12.2104 11.12L13.0765 10.62ZM15.4662 11.2603L15.9662 12.1264L15.9662 12.1264L15.4662 11.2603ZM21.8449 7.57759L22.3449 8.44361L22.3449 8.44361L21.8449 7.57759ZM22.701 5.80463L21.7119 5.6575L21.69 5.80463L21.7119 5.95175L22.701 5.80463ZM21.8449 4.03164L22.3449 3.16562L22.3449 3.16562L21.8449 4.03164ZM15.4662 0.348899L15.9662 -0.517126L15.9662 -0.517126L15.4662 0.348899ZM7.7537 1.1007C8.11215 0.893748 8.57049 1.01656 8.77743 1.375L10.5095 0.375002C9.75025 -0.940026 8.06873 -1.39059 6.7537 -0.631355L7.7537 1.1007ZM1.375 4.78344L7.7537 1.1007L6.7537 -0.631355L0.375004 3.05139L1.375 4.78344ZM1.00806 5.54327C0.963836 5.24597 1.10201 4.94105 1.375 4.78344L0.375004 3.05139C-0.632902 3.6333 -1.13112 4.75552 -0.970177 5.83752L1.00806 5.54327ZM1.375 6.59737C1.10201 6.43975 0.963833 6.13483 1.00806 5.83753L-0.970176 5.54326C-1.13113 6.62527 -0.632908 7.7475 0.375004 8.32942L1.375 6.59737ZM7.7537 10.2801L1.375 6.59737L0.375004 8.32942L6.7537 12.0122L7.7537 10.2801ZM8.77743 10.0058C8.57049 10.3642 8.11215 10.4871 7.7537 10.2801L6.7537 12.0122C8.06873 12.7714 9.75025 12.3208 10.5095 11.0058L8.77743 10.0058ZM8.50312 8.98207C8.86157 9.18902 8.98438 9.64736 8.77743 10.0058L10.5095 11.0058C11.2687 9.69077 10.8182 8.00925 9.50312 7.25002L8.50312 8.98207ZM4.30179 6.55643L8.50312 8.98207L9.50312 7.25002L5.30179 4.82438L4.30179 6.55643ZM8.50313 2.39873L4.30179 4.82438L5.30179 6.55643L9.50313 4.13078L8.50313 2.39873ZM8.77743 1.375C8.98438 1.73345 8.86157 2.19178 8.50313 2.39873L9.50313 4.13078C10.8182 3.37155 11.2687 1.69003 10.5095 0.375002L8.77743 1.375ZM14.2168 2.51296C13.8583 2.30601 13.7355 1.84767 13.9425 1.48923L12.2104 0.489232C11.4512 1.80426 11.9018 3.48578 13.2168 4.24501L14.2168 2.51296ZM18.4181 4.93859L14.2168 2.51296L13.2168 4.24501L17.4181 6.67064L18.4181 4.93859ZM14.2168 9.09627L18.4181 6.67064L17.4181 4.93859L13.2168 7.36422L14.2168 9.09627ZM13.9425 10.12C13.7355 9.76156 13.8583 9.30322 14.2168 9.09627L13.2168 7.36422C11.9018 8.12345 11.4512 9.80497 12.2104 11.12L13.9425 10.12ZM14.9662 10.3943C14.6078 10.6013 14.1494 10.4784 13.9425 10.12L12.2104 11.12C12.9697 12.435 14.6512 12.8856 15.9662 12.1264L14.9662 10.3943ZM21.3449 6.71156L14.9662 10.3943L15.9662 12.1264L22.3449 8.44361L21.3449 6.71156ZM21.7119 5.95175C21.7561 6.24905 21.6179 6.55395 21.3449 6.71156L22.3449 8.44361C23.3528 7.86171 23.851 6.73951 23.6901 5.65751L21.7119 5.95175ZM21.3449 4.89767C21.6179 5.05528 21.7561 5.3602 21.7119 5.6575L23.6901 5.95176C23.851 4.86976 23.3528 3.74753 22.3449 3.16562L21.3449 4.89767ZM14.9662 1.21492L21.3449 4.89767L22.3449 3.16562L15.9662 -0.517126L14.9662 1.21492ZM13.9425 1.48923C14.1494 1.13079 14.6078 1.00798 14.9662 1.21492L15.9662 -0.517126C14.6512 -1.27636 12.9697 -0.825795 12.2104 0.489232L13.9425 1.48923Z" fill="#666666" mask="url(#path-1-inside-1)"/>
</svg>
