<svg width="24" height="13" viewBox="0 0 24 13" fill="none" xmlns="http://www.w3.org/2000/svg">
<path fill-rule="evenodd" clip-rule="evenodd" d="M10.2836 1.51505C9.80051 0.678312 8.73058 0.391626 7.89384 0.874715L1.51514 4.55746C0.874693 4.92722 0.556495 5.64079 0.659077 6.33044C0.556489 7.0201 0.874688 7.73367 1.51514 8.10344L7.89384 11.7862C8.73058 12.2693 9.80051 11.9826 10.2836 11.1458C10.7667 10.3091 10.48 9.23918 9.64326 8.75609L5.44192 6.33045L9.64326 3.9048C10.48 3.42171 10.7667 2.35178 10.2836 1.51505ZM13.7166 1.62928C13.2335 2.46601 13.5202 3.53594 14.3569 4.01903L18.5582 6.44466L14.3569 8.87029C13.5202 9.35338 13.2335 10.4233 13.7166 11.26C14.1997 12.0968 15.2696 12.3835 16.1063 11.9004L22.485 8.21763C23.1255 7.84787 23.4437 7.13432 23.3411 6.44468C23.4437 5.75502 23.1255 5.04145 22.485 4.67169L16.1063 0.988944C15.2696 0.505855 14.1997 0.792542 13.7166 1.62928Z" fill="#4285F4"/>
</svg>
