<svg width="24" height="24" viewBox="0 0 24 24" fill="none" xmlns="http://www.w3.org/2000/svg">
<path d="M19.5 10.5H18V12H19.5C20.0966 12.0006 20.6685 12.2378 21.0903 12.6597C21.5122 13.0815 21.7494 13.6534 21.75 14.25V17.25H23.25V14.25C23.2488 13.2558 22.8533 12.3027 22.1503 11.5997C21.4473 10.8967 20.4942 10.5012 19.5 10.5Z" fill="#666666"/>
<path d="M18 3C18.445 3 18.88 3.13196 19.25 3.37919C19.62 3.62643 19.9084 3.97783 20.0787 4.38896C20.249 4.8001 20.2936 5.2525 20.2068 5.68895C20.12 6.12541 19.9057 6.52632 19.591 6.84099C19.2763 7.15566 18.8754 7.36995 18.439 7.45677C18.0025 7.54358 17.5501 7.49903 17.139 7.32873C16.7278 7.15843 16.3764 6.87004 16.1292 6.50003C15.882 6.13002 15.75 5.69501 15.75 5.25C15.75 4.65326 15.9871 4.08097 16.409 3.65901C16.831 3.23705 17.4033 3 18 3V3ZM18 1.5C17.2583 1.5 16.5333 1.71993 15.9166 2.13199C15.2999 2.54404 14.8193 3.12971 14.5355 3.81494C14.2516 4.50016 14.1774 5.25416 14.3221 5.98159C14.4668 6.70902 14.8239 7.3772 15.3484 7.90165C15.8728 8.4261 16.541 8.78325 17.2684 8.92795C17.9958 9.07264 18.7498 8.99838 19.4351 8.71455C20.1203 8.43072 20.706 7.95007 21.118 7.33339C21.5301 6.7167 21.75 5.99168 21.75 5.25C21.75 4.25544 21.3549 3.30161 20.6517 2.59835C19.9484 1.89509 18.9946 1.5 18 1.5V1.5Z" fill="#666666"/>
<path d="M17.25 22.5H15.75V21C15.7494 20.4034 15.5122 19.8315 15.0903 19.4097C14.6685 18.9878 14.0966 18.7506 13.5 18.75H10.5C9.90345 18.7506 9.3315 18.9878 8.90967 19.4097C8.48784 19.8315 8.2506 20.4034 8.25 21V22.5H6.75V21C6.75119 20.0058 7.14666 19.0527 7.84966 18.3497C8.55267 17.6467 9.5058 17.2512 10.5 17.25H13.5C14.4942 17.2512 15.4473 17.6467 16.1503 18.3497C16.8533 19.0527 17.2488 20.0058 17.25 21V22.5Z" fill="#666666"/>
<path d="M12 9.75C12.445 9.75 12.88 9.88196 13.25 10.1292C13.62 10.3764 13.9084 10.7278 14.0787 11.139C14.249 11.5501 14.2936 12.0025 14.2068 12.439C14.12 12.8754 13.9057 13.2763 13.591 13.591C13.2763 13.9057 12.8754 14.12 12.439 14.2068C12.0025 14.2936 11.5501 14.249 11.139 14.0787C10.7278 13.9084 10.3764 13.62 10.1292 13.25C9.88196 12.88 9.75 12.445 9.75 12C9.75 11.4033 9.98705 10.831 10.409 10.409C10.831 9.98705 11.4033 9.75 12 9.75V9.75ZM12 8.25C11.2583 8.25 10.5333 8.46993 9.91661 8.88199C9.29993 9.29404 8.81928 9.87971 8.53545 10.5649C8.25162 11.2502 8.17736 12.0042 8.32206 12.7316C8.46675 13.459 8.8239 14.1272 9.34835 14.6517C9.8728 15.1761 10.541 15.5333 11.2684 15.6779C11.9958 15.8226 12.7498 15.7484 13.4351 15.4645C14.1203 15.1807 14.706 14.7001 15.118 14.0834C15.5301 13.4667 15.75 12.7417 15.75 12C15.75 11.0054 15.3549 10.0516 14.6517 9.34835C13.9484 8.64509 12.9946 8.25 12 8.25Z" fill="#666666"/>
<path d="M6 10.5H4.5C3.5058 10.5012 2.55267 10.8967 1.84966 11.5997C1.14666 12.3027 0.751191 13.2558 0.75 14.25V17.25H2.25V14.25C2.2506 13.6534 2.48784 13.0815 2.90967 12.6597C3.3315 12.2378 3.90345 12.0006 4.5 12H6V10.5Z" fill="#666666"/>
<path d="M5.75 3.5C6.19501 3.5 6.63002 3.63196 7.00004 3.87919C7.37005 4.12643 7.65843 4.47783 7.82873 4.88896C7.99903 5.3001 8.04359 5.7525 7.95677 6.18895C7.86995 6.62541 7.65566 7.02632 7.34099 7.34099C7.02632 7.65566 6.62541 7.86995 6.18896 7.95677C5.7525 8.04358 5.3001 7.99903 4.88896 7.82873C4.47783 7.65843 4.12643 7.37004 3.8792 7.00003C3.63196 6.63002 3.5 6.19501 3.5 5.75C3.5 5.15326 3.73705 4.58097 4.15901 4.15901C4.58097 3.73705 5.15326 3.5 5.75 3.5V3.5ZM5.75 2C5.00832 2 4.2833 2.21993 3.66661 2.63199C3.04993 3.04404 2.56928 3.62971 2.28545 4.31494C2.00162 5.00016 1.92736 5.75416 2.07206 6.48159C2.21675 7.20902 2.5739 7.8772 3.09835 8.40165C3.6228 8.9261 4.29098 9.28325 5.01841 9.42795C5.74584 9.57264 6.49984 9.49838 7.18506 9.21455C7.87029 8.93072 8.45596 8.45007 8.86801 7.83339C9.28007 7.2167 9.5 6.49168 9.5 5.75C9.5 4.75544 9.10491 3.80161 8.40165 3.09835C7.69839 2.39509 6.74456 2 5.75 2V2Z" fill="#666666"/>
</svg>
