<svg width="24" height="24" viewBox="0 0 24 24" fill="none" xmlns="http://www.w3.org/2000/svg">
<path d="M22.1837 11.8359L12.5298 2.18907C12.4602 2.11942 12.3777 2.06417 12.2868 2.02647C12.1959 1.98877 12.0985 1.96936 12.0001 1.96936C11.9017 1.96936 11.8042 1.98877 11.7133 2.02647C11.6225 2.06417 11.5399 2.11942 11.4704 2.18907L1.81648 11.8359C1.53523 12.1172 1.37585 12.4992 1.37585 12.8977C1.37585 13.725 2.04851 14.3977 2.87585 14.3977H3.89304V21.2813C3.89304 21.6961 4.2282 22.0313 4.64304 22.0313H10.5001V16.7813H13.1251V22.0313H19.3571C19.7719 22.0313 20.1071 21.6961 20.1071 21.2813V14.3977H21.1243C21.5227 14.3977 21.9048 14.2406 22.186 13.957C22.7696 13.3711 22.7696 12.4219 22.1837 11.8359V11.8359Z" fill="#4285F4"/>
</svg>
