<svg width="411" height="293" viewBox="0 0 411 293" fill="none" xmlns="http://www.w3.org/2000/svg">
<rect width="411" height="292" fill="white"/>
<g opacity="0.1">
<path d="M89.5 52L170.645 119.259V185.993L180.629 200.181L182.731 185.993H222.14V200.181L234.751 185.993V119.259L321 52L303.587 200.181L284.145 249.049V291.611H121.777V249.049L101.809 195.451L89.5 52Z" fill="#FEEBB4"/>
<path d="M227.92 148.685C227.92 162.615 216.628 173.907 202.698 173.907C188.768 173.907 177.476 162.615 177.476 148.685C177.476 134.755 188.768 123.463 202.698 123.463C216.628 123.463 227.92 134.755 227.92 148.685Z" fill="#FCD04F"/>
<path d="M202.698 162.796C210.492 162.796 216.809 156.479 216.809 148.685C216.809 140.892 210.492 134.574 202.698 134.574C194.905 134.574 188.587 140.892 188.587 148.685C188.587 156.479 194.905 162.796 202.698 162.796ZM226.42 148.685C226.42 161.787 215.8 172.407 202.698 172.407C189.597 172.407 178.976 161.787 178.976 148.685C178.976 135.584 189.597 124.963 202.698 124.963C215.8 124.963 226.42 135.584 226.42 148.685Z" fill="#FEEBB4" stroke="#FDDE82" stroke-width="3"/>
<rect x="174.323" y="142.38" width="57.8009" height="3.15278" fill="#FDDE82"/>
<rect x="174.323" y="151.838" width="57.8009" height="3.15278" fill="#FDDE82"/>
<path d="M283.094 249.574L304.112 198.079L243.159 249.574V286.356H166.441V249.574L100.758 195.451L121.777 249.574V290.56H283.094V249.574Z" fill="#FDDE82"/>
<rect x="158.457" y="211.21" width="95.696" height="9.85106" fill="#FDDE82"/>
</g>
<path d="M123 121.868L180.66 169.662V217.081L187.755 227.163L189.248 217.081H217.252V227.163L226.213 217.081V169.662L287.5 121.868L275.127 227.163L261.311 261.888V292.132H145.935V261.888L131.747 223.802L123 121.868Z" fill="#FEEBB4"/>
<path d="M221.359 190.571C221.359 200.469 213.335 208.494 203.437 208.494C193.538 208.494 185.514 200.469 185.514 190.571C185.514 180.673 193.538 172.649 203.437 172.649C213.335 172.649 221.359 180.673 221.359 190.571Z" fill="#FCD04F"/>
<path d="M203.437 201.032C209.214 201.032 213.898 196.349 213.898 190.571C213.898 184.793 209.214 180.11 203.437 180.11C197.659 180.11 192.975 184.793 192.975 190.571C192.975 196.349 197.659 201.032 203.437 201.032ZM219.859 190.571C219.859 199.641 212.507 206.994 203.437 206.994C194.367 206.994 187.014 199.641 187.014 190.571C187.014 181.501 194.367 174.149 203.437 174.149C212.507 174.149 219.859 181.501 219.859 190.571Z" fill="#FEEBB4" stroke="#FDDE82" stroke-width="3"/>
<rect x="183.274" y="186.09" width="41.0723" height="2.24031" fill="#FDDE82"/>
<rect x="183.274" y="192.811" width="41.0723" height="2.24031" fill="#FDDE82"/>
<path d="M260.565 262.261L275.5 225.669L232.187 262.261V288.398H177.673V262.261L131 223.802L145.935 262.261V291.385H260.565V262.261Z" fill="#FDDE82"/>
<rect x="172" y="235" width="68" height="7" fill="#FDDE82"/>
<path d="M115.957 276.613V265.181H119.453C121.199 265.181 122.598 265.708 123.652 266.762C124.717 267.816 125.249 269.194 125.249 270.897C125.249 272.611 124.717 273.994 123.652 275.048C122.598 276.091 121.199 276.613 119.453 276.613H115.957ZM117.426 266.586V275.208H119.453C120.784 275.208 121.832 274.83 122.598 274.074C123.365 273.308 123.748 272.249 123.748 270.897C123.748 269.556 123.365 268.502 122.598 267.736C121.832 266.969 120.784 266.586 119.453 266.586H117.426ZM130.019 276.868C128.869 276.868 127.922 276.474 127.177 275.687C126.432 274.899 126.059 273.904 126.059 272.701C126.059 271.509 126.421 270.519 127.145 269.731C127.869 268.933 128.795 268.534 129.923 268.534C131.083 268.534 132.004 268.912 132.685 269.668C133.377 270.413 133.722 271.461 133.722 272.813L133.707 272.972H127.56C127.581 273.739 127.837 274.356 128.326 274.824C128.816 275.293 129.401 275.527 130.082 275.527C131.019 275.527 131.753 275.059 132.286 274.122L133.595 274.761C133.244 275.42 132.754 275.937 132.126 276.309C131.509 276.682 130.806 276.868 130.019 276.868ZM127.672 271.759H132.158C132.115 271.216 131.892 270.769 131.487 270.418C131.094 270.056 130.561 269.875 129.891 269.875C129.337 269.875 128.858 270.045 128.454 270.386C128.06 270.727 127.799 271.184 127.672 271.759ZM138.71 276.613H137.241L134.08 268.789H135.676L137.975 274.856H138.007L140.338 268.789H141.903L138.71 276.613ZM146.14 276.868C144.99 276.868 144.043 276.474 143.298 275.687C142.553 274.899 142.18 273.904 142.18 272.701C142.18 271.509 142.542 270.519 143.266 269.731C143.99 268.933 144.916 268.534 146.044 268.534C147.204 268.534 148.125 268.912 148.806 269.668C149.498 270.413 149.844 271.461 149.844 272.813L149.828 272.972H143.681C143.702 273.739 143.958 274.356 144.447 274.824C144.937 275.293 145.522 275.527 146.204 275.527C147.14 275.527 147.875 275.059 148.407 274.122L149.716 274.761C149.365 275.42 148.875 275.937 148.247 276.309C147.63 276.682 146.927 276.868 146.14 276.868ZM143.793 271.759H148.279C148.237 271.216 148.013 270.769 147.609 270.418C147.215 270.056 146.683 269.875 146.012 269.875C145.459 269.875 144.98 270.045 144.575 270.386C144.181 270.727 143.921 271.184 143.793 271.759ZM152.656 265.181V276.613H151.187V265.181H152.656ZM153.921 272.701C153.921 271.498 154.298 270.503 155.054 269.715C155.82 268.928 156.784 268.534 157.944 268.534C159.104 268.534 160.062 268.928 160.818 269.715C161.584 270.503 161.967 271.498 161.967 272.701C161.967 273.914 161.584 274.91 160.818 275.687C160.062 276.474 159.104 276.868 157.944 276.868C156.784 276.868 155.82 276.474 155.054 275.687C154.298 274.899 153.921 273.904 153.921 272.701ZM155.389 272.701C155.389 273.542 155.634 274.223 156.124 274.745C156.613 275.266 157.22 275.527 157.944 275.527C158.668 275.527 159.274 275.266 159.764 274.745C160.253 274.223 160.498 273.542 160.498 272.701C160.498 271.871 160.253 271.195 159.764 270.673C159.264 270.141 158.657 269.875 157.944 269.875C157.231 269.875 156.624 270.141 156.124 270.673C155.634 271.195 155.389 271.871 155.389 272.701ZM167.055 275.527C167.758 275.527 168.348 275.261 168.827 274.729C169.306 274.207 169.546 273.531 169.546 272.701C169.546 271.881 169.306 271.206 168.827 270.673C168.348 270.141 167.758 269.875 167.055 269.875C166.342 269.875 165.746 270.141 165.267 270.673C164.799 271.206 164.564 271.881 164.564 272.701C164.564 273.531 164.799 274.212 165.267 274.745C165.746 275.266 166.342 275.527 167.055 275.527ZM167.295 276.868C166.72 276.868 166.193 276.746 165.714 276.501C165.246 276.256 164.884 275.931 164.628 275.527H164.564L164.628 276.613V280.061H163.159V268.789H164.564V269.875H164.628C164.884 269.471 165.246 269.146 165.714 268.901C166.193 268.656 166.72 268.534 167.295 268.534C168.327 268.534 169.2 268.939 169.913 269.747C170.647 270.567 171.014 271.552 171.014 272.701C171.014 273.861 170.647 274.846 169.913 275.655C169.2 276.464 168.327 276.868 167.295 276.868ZM175.872 276.868C174.723 276.868 173.775 276.474 173.03 275.687C172.285 274.899 171.913 273.904 171.913 272.701C171.913 271.509 172.275 270.519 172.998 269.731C173.722 268.933 174.648 268.534 175.776 268.534C176.937 268.534 177.857 268.912 178.538 269.668C179.23 270.413 179.576 271.461 179.576 272.813L179.56 272.972H173.413C173.435 273.739 173.69 274.356 174.18 274.824C174.669 275.293 175.255 275.527 175.936 275.527C176.873 275.527 177.607 275.059 178.139 274.122L179.448 274.761C179.097 275.42 178.608 275.937 177.98 276.309C177.362 276.682 176.66 276.868 175.872 276.868ZM173.525 271.759H178.012C177.969 271.216 177.745 270.769 177.341 270.418C176.947 270.056 176.415 269.875 175.744 269.875C175.191 269.875 174.712 270.045 174.308 270.386C173.914 270.727 173.653 271.184 173.525 271.759ZM182.388 276.613H180.919V268.789H182.324V270.067H182.388C182.537 269.652 182.841 269.3 183.298 269.013C183.766 268.715 184.224 268.566 184.671 268.566C185.097 268.566 185.459 268.63 185.757 268.758L185.31 270.178C185.129 270.104 184.841 270.067 184.448 270.067C183.894 270.067 183.41 270.29 182.995 270.737C182.59 271.184 182.388 271.706 182.388 272.302V276.613ZM197.056 273.563C197.056 274.564 196.689 275.367 195.954 275.974C195.209 276.57 194.305 276.868 193.24 276.868C192.293 276.868 191.458 276.591 190.734 276.038C190.01 275.484 189.51 274.729 189.233 273.771L190.638 273.196C190.734 273.537 190.867 273.845 191.037 274.122C191.207 274.399 191.404 274.638 191.628 274.84C191.862 275.032 192.117 275.186 192.394 275.303C192.671 275.41 192.964 275.463 193.272 275.463C193.943 275.463 194.491 275.293 194.917 274.952C195.342 274.601 195.555 274.138 195.555 273.563C195.555 273.084 195.38 272.674 195.028 272.334C194.699 272.004 194.081 271.685 193.176 271.376C192.261 271.046 191.692 270.822 191.468 270.705C190.255 270.088 189.648 269.178 189.648 267.975C189.648 267.134 189.983 266.416 190.654 265.82C191.335 265.224 192.171 264.926 193.161 264.926C194.033 264.926 194.789 265.149 195.428 265.596C196.066 266.033 196.492 266.581 196.705 267.241L195.332 267.816C195.204 267.39 194.949 267.039 194.565 266.762C194.193 266.475 193.735 266.331 193.192 266.331C192.618 266.331 192.133 266.49 191.74 266.81C191.346 267.108 191.149 267.496 191.149 267.975C191.149 268.369 191.303 268.71 191.612 268.997C191.952 269.284 192.692 269.625 193.831 270.019C194.991 270.413 195.816 270.897 196.306 271.472C196.806 272.036 197.056 272.733 197.056 273.563ZM201.26 276.74C200.622 276.74 200.09 276.543 199.664 276.15C199.249 275.756 199.036 275.208 199.025 274.505V270.131H197.652V268.789H199.025V266.395H200.494V268.789H202.41V270.131H200.494V274.026C200.494 274.548 200.595 274.904 200.797 275.096C201 275.277 201.229 275.367 201.484 275.367C201.601 275.367 201.713 275.357 201.819 275.335C201.936 275.303 202.043 275.266 202.139 275.224L202.602 276.533C202.218 276.671 201.771 276.74 201.26 276.74ZM210.672 276.613H209.267V275.527H209.203C208.98 275.91 208.634 276.229 208.166 276.485C207.708 276.74 207.229 276.868 206.729 276.868C205.771 276.868 205.031 276.597 204.51 276.054C203.999 275.5 203.743 274.718 203.743 273.707V268.789H205.212V273.611C205.244 274.888 205.888 275.527 207.144 275.527C207.729 275.527 208.219 275.293 208.613 274.824C209.007 274.345 209.203 273.776 209.203 273.116V268.789H210.672V276.613ZM215.895 275.527C216.618 275.527 217.209 275.266 217.667 274.745C218.146 274.223 218.385 273.542 218.385 272.701C218.385 271.881 218.146 271.206 217.667 270.673C217.199 270.141 216.608 269.875 215.895 269.875C215.192 269.875 214.602 270.141 214.123 270.673C213.644 271.206 213.404 271.881 213.404 272.701C213.404 273.531 213.644 274.207 214.123 274.729C214.602 275.261 215.192 275.527 215.895 275.527ZM215.655 276.868C214.633 276.868 213.755 276.464 213.021 275.655C212.297 274.835 211.935 273.851 211.935 272.701C211.935 271.552 212.297 270.567 213.021 269.747C213.755 268.939 214.633 268.534 215.655 268.534C216.23 268.534 216.752 268.656 217.22 268.901C217.699 269.146 218.066 269.471 218.321 269.875H218.385L218.321 268.789V265.181H219.79V276.613H218.385V275.527H218.321C218.066 275.931 217.699 276.256 217.22 276.501C216.752 276.746 216.23 276.868 215.655 276.868ZM225.016 276.868C223.866 276.868 222.919 276.474 222.174 275.687C221.429 274.899 221.056 273.904 221.056 272.701C221.056 271.509 221.418 270.519 222.142 269.731C222.866 268.933 223.792 268.534 224.92 268.534C226.08 268.534 227.001 268.912 227.682 269.668C228.374 270.413 228.719 271.461 228.719 272.813L228.704 272.972H222.557C222.578 273.739 222.834 274.356 223.323 274.824C223.813 275.293 224.398 275.527 225.079 275.527C226.016 275.527 226.75 275.059 227.283 274.122L228.592 274.761C228.241 275.42 227.751 275.937 227.123 276.309C226.506 276.682 225.803 276.868 225.016 276.868ZM222.669 271.759H227.155C227.112 271.216 226.889 270.769 226.484 270.418C226.091 270.056 225.558 269.875 224.888 269.875C224.334 269.875 223.855 270.045 223.451 270.386C223.057 270.727 222.796 271.184 222.669 271.759ZM230.063 268.789H231.468V269.875H231.532C231.755 269.492 232.096 269.173 232.553 268.917C233.022 268.662 233.506 268.534 234.006 268.534C234.964 268.534 235.698 268.811 236.209 269.364C236.731 269.907 236.992 270.684 236.992 271.695V276.613H235.523V271.791C235.491 270.514 234.847 269.875 233.591 269.875C233.006 269.875 232.516 270.115 232.122 270.594C231.728 271.062 231.532 271.626 231.532 272.286V276.613H230.063V268.789ZM241.408 276.74C240.769 276.74 240.237 276.543 239.811 276.15C239.396 275.756 239.183 275.208 239.173 274.505V270.131H237.8V268.789H239.173V266.395H240.641V268.789H242.557V270.131H240.641V274.026C240.641 274.548 240.742 274.904 240.945 275.096C241.147 275.277 241.376 275.367 241.631 275.367C241.748 275.367 241.86 275.357 241.967 275.335C242.084 275.303 242.19 275.266 242.286 275.224L242.749 276.533C242.366 276.671 241.919 276.74 241.408 276.74ZM252.786 276.868C251.094 276.868 249.678 276.299 248.54 275.16C247.411 274.021 246.847 272.6 246.847 270.897C246.847 269.194 247.411 267.778 248.54 266.65C249.668 265.501 251.083 264.926 252.786 264.926C254.511 264.926 255.91 265.549 256.985 266.794L255.932 267.816C255.112 266.826 254.064 266.331 252.786 266.331C251.52 266.331 250.461 266.757 249.609 267.608C248.768 268.449 248.348 269.545 248.348 270.897C248.348 272.249 248.768 273.345 249.609 274.186C250.461 275.037 251.52 275.463 252.786 275.463C254.117 275.463 255.272 274.904 256.251 273.787L257.321 274.824C256.778 275.474 256.113 275.979 255.325 276.341C254.537 276.692 253.691 276.868 252.786 276.868ZM260.095 265.181V276.613H258.626V265.181H260.095ZM268.749 276.613H267.344V275.527H267.281C267.057 275.91 266.711 276.229 266.243 276.485C265.785 276.74 265.306 276.868 264.806 276.868C263.848 276.868 263.108 276.597 262.587 276.054C262.076 275.5 261.82 274.718 261.82 273.707V268.789H263.289V273.611C263.321 274.888 263.965 275.527 265.221 275.527C265.806 275.527 266.296 275.293 266.69 274.824C267.084 274.345 267.281 273.776 267.281 273.116V268.789H268.749V276.613ZM274.672 276.868C274.098 276.868 273.571 276.746 273.092 276.501C272.624 276.256 272.262 275.931 272.006 275.527H271.942V276.613H270.537V265.181H272.006V268.789L271.942 269.875H272.006C272.262 269.471 272.624 269.146 273.092 268.901C273.571 268.656 274.098 268.534 274.672 268.534C275.705 268.534 276.578 268.939 277.291 269.747C278.025 270.567 278.392 271.552 278.392 272.701C278.392 273.861 278.025 274.846 277.291 275.655C276.578 276.464 275.705 276.868 274.672 276.868ZM274.433 275.527C275.135 275.527 275.726 275.261 276.205 274.729C276.684 274.207 276.924 273.531 276.924 272.701C276.924 271.881 276.684 271.206 276.205 270.673C275.726 270.141 275.135 269.875 274.433 269.875C273.72 269.875 273.124 270.141 272.645 270.673C272.176 271.206 271.942 271.881 271.942 272.701C271.942 273.531 272.176 274.212 272.645 274.745C273.124 275.266 273.72 275.527 274.433 275.527ZM287.163 276.868C285.897 276.868 284.875 276.453 284.098 275.623C283.321 274.803 282.932 273.717 282.932 272.366V265.181H284.401V272.43C284.401 273.366 284.646 274.106 285.136 274.649C285.625 275.192 286.301 275.463 287.163 275.463C288.025 275.463 288.701 275.192 289.191 274.649C289.68 274.106 289.925 273.366 289.925 272.43V265.181H291.394V272.366C291.394 273.749 291.011 274.846 290.245 275.655C289.478 276.464 288.451 276.868 287.163 276.868ZM293.176 268.789H294.581V269.875H294.645C294.868 269.492 295.209 269.173 295.666 268.917C296.135 268.662 296.619 268.534 297.119 268.534C298.077 268.534 298.812 268.811 299.322 269.364C299.844 269.907 300.105 270.684 300.105 271.695V276.613H298.636V271.791C298.604 270.514 297.96 269.875 296.704 269.875C296.119 269.875 295.629 270.115 295.235 270.594C294.841 271.062 294.645 271.626 294.645 272.286V276.613H293.176V268.789ZM303.729 266.091C303.729 266.379 303.628 266.624 303.425 266.826C303.223 267.028 302.978 267.129 302.691 267.129C302.404 267.129 302.159 267.028 301.957 266.826C301.754 266.624 301.653 266.379 301.653 266.091C301.653 265.804 301.754 265.559 301.957 265.357C302.159 265.155 302.404 265.054 302.691 265.054C302.978 265.054 303.223 265.155 303.425 265.357C303.628 265.559 303.729 265.804 303.729 266.091ZM303.425 268.789V276.613H301.957V268.789H303.425ZM306.806 265.181V276.613H305.337V265.181H306.806ZM309.587 274.218C309.587 274.601 309.747 274.92 310.066 275.176C310.396 275.431 310.779 275.559 311.216 275.559C311.833 275.559 312.381 275.33 312.86 274.872C313.35 274.415 313.594 273.877 313.594 273.26C313.137 272.898 312.498 272.717 311.679 272.717C311.083 272.717 310.582 272.861 310.178 273.148C309.784 273.435 309.587 273.792 309.587 274.218ZM311.487 268.534C312.573 268.534 313.429 268.827 314.057 269.412C314.685 269.987 314.999 270.78 314.999 271.791V276.613H313.594V275.527H313.531C312.924 276.421 312.115 276.868 311.104 276.868C310.242 276.868 309.518 276.613 308.933 276.102C308.358 275.591 308.07 274.952 308.07 274.186C308.07 273.377 308.374 272.733 308.98 272.254C309.598 271.775 310.417 271.536 311.439 271.536C312.312 271.536 313.03 271.695 313.594 272.015V271.679C313.594 271.168 313.392 270.737 312.988 270.386C312.583 270.024 312.11 269.843 311.567 269.843C310.747 269.843 310.098 270.189 309.619 270.881L308.326 270.067C309.039 269.045 310.093 268.534 311.487 268.534ZM320.09 275.527C320.814 275.527 321.405 275.266 321.863 274.745C322.342 274.223 322.581 273.542 322.581 272.701C322.581 271.881 322.342 271.206 321.863 270.673C321.394 270.141 320.804 269.875 320.09 269.875C319.388 269.875 318.797 270.141 318.318 270.673C317.839 271.206 317.6 271.881 317.6 272.701C317.6 273.531 317.839 274.207 318.318 274.729C318.797 275.261 319.388 275.527 320.09 275.527ZM320.043 280.316C319.606 280.316 319.196 280.258 318.813 280.141C318.43 280.034 318.079 279.88 317.76 279.678C317.451 279.476 317.185 279.236 316.961 278.959C316.738 278.683 316.567 278.374 316.45 278.033L317.839 277.459C317.999 277.916 318.276 278.284 318.67 278.56C319.063 278.837 319.521 278.975 320.043 278.975C320.841 278.975 321.464 278.736 321.911 278.257C322.358 277.778 322.581 277.118 322.581 276.277V275.527H322.517C322.24 275.942 321.863 276.272 321.384 276.517C320.915 276.751 320.404 276.868 319.851 276.868C318.829 276.868 317.951 276.469 317.217 275.671C316.493 274.851 316.131 273.861 316.131 272.701C316.131 271.541 316.493 270.556 317.217 269.747C317.951 268.939 318.829 268.534 319.851 268.534C320.404 268.534 320.915 268.656 321.384 268.901C321.863 269.135 322.24 269.46 322.517 269.875H322.581V268.789H323.986V276.277C323.986 277.533 323.629 278.518 322.916 279.231C322.193 279.955 321.235 280.316 320.043 280.316Z" fill="#B08403"/>
<rect x="94" y="266.33" width="5" height="15.5256" rx="2.5" transform="rotate(-60 94 266.33)" fill="#FCD04F"/>
<rect x="91.5941" y="275.6" width="5" height="15.5256" rx="2.5" transform="rotate(120 91.5941 275.6)" fill="#FCD04F"/>
<rect x="96.5" y="280.093" width="5" height="15.5256" rx="2.5" transform="rotate(-120 96.5 280.093)" fill="#FCD04F"/>
<rect x="89.0941" y="261.837" width="5" height="15.5256" rx="2.5" transform="rotate(60 89.0941 261.837)" fill="#FCD04F"/>
</svg>
